<?xml version="1.0" encoding="UTF-8"?>
<svg version="1.1" xmlns="http://www.w3.org/2000/svg" width="92" height="91">
<path d="M0 0 C30.36 0 60.72 0 92 0 C92 30.03 92 60.06 92 91 C61.64 91 31.28 91 0 91 C0 60.97 0 30.94 0 0 Z " fill="#000000" transform="translate(0,0)"/>
<path d="M0 0 C2.0625 0.4375 2.0625 0.4375 4 1 C4.12375 2.6396875 4.12375 2.6396875 4.25 4.3125 C4.57014686 8.0416049 4.57014686 8.0416049 7.01849365 9.42805481 C9 11 9 11 9.48101807 13.22099304 C9.47213562 14.08481094 9.46325317 14.94862885 9.45410156 15.83862305 C9.45379944 16.8194133 9.45349731 17.80020355 9.45318604 18.81071472 C9.43254089 19.86704605 9.41189575 20.92337738 9.390625 22.01171875 C9.38496521 23.09508011 9.37930542 24.17844147 9.37347412 25.29463196 C9.35105966 28.7593683 9.30085218 32.22307553 9.25 35.6875 C9.22994164 38.03449029 9.21168972 40.38149676 9.1953125 42.72851562 C9.15117831 48.486029 9.08421541 54.24294099 9 60 C7.35 60.66 5.7 61.32 4 62 C4 64.64 4 67.28 4 70 C2.02 70.495 2.02 70.495 0 71 C-1.4783226 68.04335481 -1.06032783 65.25770263 -1 62 C-1.639375 61.87625 -2.27875 61.7525 -2.9375 61.625 C-3.618125 61.41875 -4.29875 61.2125 -5 61 C-6.19585473 58.60829054 -6.14567565 57.08489372 -6.17700195 54.41430664 C-6.18983719 53.46314468 -6.20267242 52.51198273 -6.21589661 51.53199768 C-6.22328354 50.50179001 -6.23067047 49.47158234 -6.23828125 48.41015625 C-6.246353 47.35469101 -6.25442474 46.29922577 -6.26274109 45.21177673 C-6.27658576 42.97656907 -6.2873062 40.74134023 -6.29516602 38.50610352 C-6.31241273 35.07983716 -6.35630003 31.65452709 -6.40039062 28.22851562 C-6.41051427 26.05990295 -6.4190314 23.89128205 -6.42578125 21.72265625 C-6.44328934 20.69447281 -6.46079742 19.66628937 -6.47883606 18.60694885 C-6.47591049 17.65263474 -6.47298492 16.69832062 -6.4699707 15.71508789 C-6.47583694 14.87506729 -6.48170319 14.03504669 -6.48774719 13.16957092 C-5.83043242 10.24573858 -4.38234793 9.69408961 -2 8 C-1.26393501 4.43230448 -1.26393501 4.43230448 -1 1 C-0.67 0.67 -0.34 0.34 0 0 Z " fill="#52AF46" transform="translate(76,7)"/>
<path d="M0 0 C2.0625 0.4375 2.0625 0.4375 4 1 C4.13020833 2.98567708 4.26041667 4.97135417 4.390625 6.95703125 C4.82051672 9.18792986 4.82051672 9.18792986 7.00672913 10.35119629 C9 12 9 12 9.50120544 14.0489502 C9.50137161 14.83265991 9.50153778 15.61636963 9.50170898 16.42382812 C9.51108994 17.31485229 9.52047089 18.20587646 9.53013611 19.12390137 C9.51890213 20.08332642 9.50766815 21.04275146 9.49609375 22.03125 C9.49754898 23.01871216 9.49900421 24.00617432 9.50050354 25.02355957 C9.49884332 27.11160227 9.48726834 29.19965706 9.46655273 31.28759766 C9.43761004 34.48783222 9.44593897 37.6864098 9.45898438 40.88671875 C9.45274677 42.91407057 9.44435566 44.94141715 9.43359375 46.96875 C9.43652939 47.92817505 9.43946503 48.8876001 9.44248962 49.87609863 C9.42980545 50.7671228 9.41712128 51.65814697 9.40405273 52.57617188 C9.39864975 53.35988159 9.39324677 54.14359131 9.38768005 54.9510498 C8.90231121 57.51630064 8.05216608 58.430472 6 60 C5.34 60 4.68 60 4 60 C4.061875 61.27875 4.12375 62.5575 4.1875 63.875 C4.29296875 66.0546875 4.29296875 66.0546875 4 68 C2.515 68.99 2.515 68.99 1 70 C-1 68 -1 68 -1.1953125 66.0546875 C-1.09765625 63.02734375 -1.09765625 63.02734375 -1 60 C-1.639375 59.690625 -2.27875 59.38125 -2.9375 59.0625 C-5 58 -5 58 -6 57 C-6.1135704 55.60444413 -6.15951484 54.20328288 -6.17700195 52.80322266 C-6.18983719 51.91204742 -6.20267242 51.02087219 -6.21589661 50.10269165 C-6.22328354 49.13294403 -6.23067047 48.16319641 -6.23828125 47.1640625 C-6.246353 46.17377045 -6.25442474 45.18347839 -6.26274109 44.16317749 C-6.27659909 42.06322999 -6.28731353 39.9632598 -6.29516602 37.86328125 C-6.3123908 34.6454013 -6.35626315 31.42854523 -6.40039062 28.2109375 C-6.41051589 26.17448675 -6.41903251 24.13802724 -6.42578125 22.1015625 C-6.45204338 20.65301376 -6.45204338 20.65301376 -6.47883606 19.17520142 C-6.47591049 18.27772186 -6.47298492 17.38024231 -6.4699707 16.45556641 C-6.47583694 15.66582428 -6.48170319 14.87608215 -6.48774719 14.06240845 C-5.81890825 11.23426489 -4.352091 10.57900736 -2 9 C-1.34721202 6.9999939 -1.34721202 6.9999939 -1.3125 4.875 C-1 1 -1 1 0 0 Z " fill="#52AF46" transform="translate(14,7)"/>
<path d="M0 0 C30.36 0 60.72 0 92 0 C92 30.03 92 60.06 92 91 C61.64 91 31.28 91 0 91 C0 60.97 0 30.94 0 0 Z M4.04122925 3.04122925 C2.39040295 6.14678 2.58373115 9.29729352 2.61181641 12.72851562 C2.60655945 13.51417404 2.60130249 14.29983246 2.59588623 15.10929871 C2.58267334 17.70848421 2.59142866 20.30705818 2.6015625 22.90625 C2.59954213 24.71081663 2.596631 26.51538246 2.59286499 28.31994629 C2.5884399 32.10286224 2.59487861 35.88556576 2.60888672 39.66845703 C2.62597875 44.52106892 2.61613856 49.37318306 2.59816933 54.22577667 C2.58733647 57.9523698 2.59077553 61.67884463 2.5985527 65.40544128 C2.60055609 67.19484007 2.59809058 68.98424955 2.59111404 70.77363586 C2.58350768 73.27320873 2.59509179 75.77197192 2.61181641 78.27148438 C2.60574371 79.01339523 2.59967102 79.75530609 2.59341431 80.5196991 C2.62770451 83.28146871 2.73099566 85.49394637 4.04122925 87.95877075 C7.14678 89.60959705 10.29729352 89.41626885 13.72851562 89.38818359 C14.90700325 89.39606903 14.90700325 89.39606903 16.10929871 89.40411377 C18.70848421 89.41732666 21.30705818 89.40857134 23.90625 89.3984375 C25.71081663 89.40045787 27.51538246 89.403369 29.31994629 89.40713501 C33.10286224 89.4115601 36.88556576 89.40512139 40.66845703 89.39111328 C45.52106892 89.37402125 50.37318306 89.38386144 55.22577667 89.40183067 C58.9523698 89.41266353 62.67884463 89.40922447 66.40544128 89.4014473 C68.19484007 89.39944391 69.98424955 89.40190942 71.77363586 89.40888596 C74.27320873 89.41649232 76.77197192 89.40490821 79.27148438 89.38818359 C80.01339523 89.39425629 80.75530609 89.40032898 81.5196991 89.40658569 C84.28146871 89.37229549 86.49394637 89.26900434 88.95877075 87.95877075 C90.60959705 84.85322 90.41626885 81.70270648 90.38818359 78.27148438 C90.39344055 77.48582596 90.39869751 76.70016754 90.40411377 75.89070129 C90.41732666 73.29151579 90.40857134 70.69294182 90.3984375 68.09375 C90.40045787 66.28918337 90.403369 64.48461754 90.40713501 62.68005371 C90.4115601 58.89713776 90.40512139 55.11443424 90.39111328 51.33154297 C90.37402125 46.47893108 90.38386144 41.62681694 90.40183067 36.77422333 C90.41266353 33.0476302 90.40922447 29.32115537 90.4014473 25.59455872 C90.39944391 23.80515993 90.40190942 22.01575045 90.40888596 20.22636414 C90.41649232 17.72679127 90.40490821 15.22802808 90.38818359 12.72851562 C90.39425629 11.98660477 90.40032898 11.24469391 90.40658569 10.4803009 C90.37229549 7.71853129 90.26900434 5.50605363 88.95877075 3.04122925 C85.85322 1.39040295 82.70270648 1.58373115 79.27148438 1.61181641 C78.48582596 1.60655945 77.70016754 1.60130249 76.89070129 1.59588623 C74.29151579 1.58267334 71.69294182 1.59142866 69.09375 1.6015625 C67.28918337 1.59954213 65.48461754 1.596631 63.68005371 1.59286499 C59.89713776 1.5884399 56.11443424 1.59487861 52.33154297 1.60888672 C47.47893108 1.62597875 42.62681694 1.61613856 37.77422333 1.59816933 C34.0476302 1.58733647 30.32115537 1.59077553 26.59455872 1.5985527 C24.80515993 1.60055609 23.01575045 1.59809058 21.22636414 1.59111404 C18.72679127 1.58350768 16.22802808 1.59509179 13.72851562 1.61181641 C12.98660477 1.60574371 12.24469391 1.59967102 11.4803009 1.59341431 C8.71853129 1.62770451 6.50605363 1.73099566 4.04122925 3.04122925 Z " fill="#272727" transform="translate(0,0)"/>
<path d="M0 0 C1.32 0 2.64 0 4 0 C4 1.65 4 3.3 4 5 C4.804375 5.28875 5.60875 5.5775 6.4375 5.875 C9 7 9 7 10 9 C10.13520707 11.57919148 10.21261299 14.13014856 10.23828125 16.7109375 C10.246353 17.47548248 10.25442474 18.24002747 10.26274109 19.02774048 C10.27657813 20.64672581 10.28730199 22.26574026 10.29516602 23.88476562 C10.31238609 26.35863566 10.35627351 28.83117146 10.40039062 31.3046875 C10.41051715 32.87759434 10.41903338 34.45051254 10.42578125 36.0234375 C10.44328934 36.76210052 10.46079742 37.50076355 10.47883606 38.2618103 C10.46398344 41.78497373 10.26098169 43.65709505 8.09838867 46.49853516 C6 48 6 48 4 48 C4 49.65 4 51.3 4 53 C2.68 53 1.36 53 0 53 C0 51.35 0 49.7 0 48 C-0.928125 47.814375 -0.928125 47.814375 -1.875 47.625 C-4 47 -4 47 -6 45 C-6.212112 42.23839603 -6.30397075 39.57961948 -6.30078125 36.81640625 C-6.30506638 36.0050975 -6.3093515 35.19378876 -6.31376648 34.3578949 C-6.319514 32.64054295 -6.32000694 30.92316665 -6.31567383 29.20581055 C-6.3125165 26.5762378 -6.33595748 23.94779269 -6.36132812 21.31835938 C-6.36360132 19.65104309 -6.36430452 17.98372377 -6.36328125 16.31640625 C-6.372491 15.52883438 -6.38170074 14.74126251 -6.39118958 13.92982483 C-6.34530661 8.52234806 -6.34530661 8.52234806 -4.66479492 5.98022461 C-3 5 -3 5 0 5 C0 3.35 0 1.7 0 0 Z " fill="#F15A5B" transform="translate(55,31)"/>
<path d="M0 0 C1.32 0 2.64 0 4 0 C4 1.98 4 3.96 4 6 C4.61875 6.12375 5.2375 6.2475 5.875 6.375 C8 7 8 7 10 9 C10.25878906 11.38256836 10.25878906 11.38256836 10.265625 14.33984375 C10.26949219 15.9340918 10.26949219 15.9340918 10.2734375 17.56054688 C10.26570313 18.67494141 10.25796875 19.78933594 10.25 20.9375 C10.25773437 22.04802734 10.26546875 23.15855469 10.2734375 24.30273438 C10.27085938 25.36685547 10.26828125 26.43097656 10.265625 27.52734375 C10.26336914 28.50437256 10.26111328 29.48140137 10.25878906 30.48803711 C10 33 10 33 8 36 C6.515 36.495 6.515 36.495 5 37 C4.67 38.98 4.34 40.96 4 43 C2.68 42.67 1.36 42.34 0 42 C-0.061875 41.278125 -0.12375 40.55625 -0.1875 39.8125 C-0.76504342 36.78836738 -0.76504342 36.78836738 -3.51953125 35.015625 C-7.20231091 30.53829288 -6.66105622 26.55616578 -6.5 20.9375 C-6.50257812 19.94427734 -6.50515625 18.95105469 -6.5078125 17.92773438 C-6.39363556 9.45009622 -6.39363556 9.45009622 -3 6 C-2.01 6 -1.02 6 0 6 C0 4.02 0 2.04 0 0 Z " fill="#F25A5B" transform="translate(34,23)"/>
<path d="M0 0 C1.65 0 3.3 0 5 0 C5.29296875 6.0546875 5.29296875 6.0546875 5 8 C4.01 8.66 3.02 9.32 2 10 C0 8 0 8 -0.1953125 6.0546875 C-0.13020833 4.03645833 -0.06510417 2.01822917 0 0 Z " fill="#34772C" transform="translate(13,67)"/>
<path d="M0 0 C2.0625 0.4375 2.0625 0.4375 4 1 C4 3.64 4 6.28 4 9 C2.35 9 0.7 9 -1 9 C-1.09765625 2.84765625 -1.09765625 2.84765625 -1 1 C-0.67 0.67 -0.34 0.34 0 0 Z " fill="#35782C" transform="translate(14,7)"/>
<path d="M0 0 C1.65 0 3.3 0 5 0 C5 2.64 5 5.28 5 8 C3.68 8.33 2.36 8.66 1 9 C-0.4783226 6.04335481 -0.06032783 3.25770263 0 0 Z " fill="#33762B" transform="translate(75,69)"/>
<path d="M0 0 C2.0625 0.4375 2.0625 0.4375 4 1 C4 3.31 4 5.62 4 8 C2.35 8 0.7 8 -1 8 C-1.04241723 5.66705225 -1.04092937 3.33297433 -1 1 C-0.67 0.67 -0.34 0.34 0 0 Z " fill="#35772D" transform="translate(76,7)"/>
<path d="M0 0 C1.98 0 3.96 0 6 0 C5.67 2.31 5.34 4.62 5 7 C3.68 6.67 2.36 6.34 1 6 C0.67 4.02 0.34 2.04 0 0 Z " fill="#D1393A" transform="translate(33,59)"/>
<path d="M0 0 C1.32 0 2.64 0 4 0 C4 1.98 4 3.96 4 6 C2.68 6 1.36 6 0 6 C0 4.02 0 2.04 0 0 Z " fill="#CF3535" transform="translate(34,23)"/>
<path d="M0 0 C1.32 0 2.64 0 4 0 C4 1.65 4 3.3 4 5 C2.68 5 1.36 5 0 5 C0 3.35 0 1.7 0 0 Z " fill="#CC3434" transform="translate(55,79)"/>
<path d="M0 0 C1.32 0 2.64 0 4 0 C4 1.65 4 3.3 4 5 C2.68 5 1.36 5 0 5 C0 3.35 0 1.7 0 0 Z " fill="#CD3435" transform="translate(55,31)"/>
</svg>
